<svg width="24" height="24" viewBox="0 0 24 24" fill="none" xmlns="http://www.w3.org/2000/svg">
<path d="M19.5 3C20.34 3.00001 21 3.65999 21 4.5V19.5C21 20.34 20.34 21 19.5 21H4.5C3.65998 21 3 20.34 3 19.5V4.5C3.00001 3.65999 3.65999 3.00001 4.5 3H19.5ZM4.67871 3.7998C4.18084 3.7998 3.7998 4.18084 3.7998 4.67871V19.3213C3.7998 19.8192 4.18084 20.2002 4.67871 20.2002H11.4141V14.9287H9.07129V11.4141H11.4141V9.9502C11.4141 7.98806 12.9373 6.31829 14.8994 6.14258H18.1504V9.65723H15.2217C15.046 9.65723 14.9287 9.77448 14.9287 9.9502V11.4141H17.8574V14.9287H14.9287V20.2002H19.3213C19.8192 20.2002 20.2002 19.8192 20.2002 19.3213V4.67871C20.2002 4.18084 19.8192 3.7998 19.3213 3.7998H4.67871ZM14.8662 6.7998C13.2903 6.94349 12.052 8.32076 12.0518 9.95605V11.9648H9.7998V14.2607H12.0518V20.2002H14.3037V14.2607H17.1182V11.9648H14.3037V9.95605C14.3039 9.46845 14.6701 9.0957 15.1484 9.0957H17.4004V6.7998H14.8662Z" fill="white"/>
<mask id="mask0_446531_1053" style="mask-type:luminance" maskUnits="userSpaceOnUse" x="3" y="3" width="18" height="18">
<path d="M19.5 3C20.34 3.00001 21 3.65999 21 4.5V19.5C21 20.34 20.34 21 19.5 21H4.5C3.65998 21 3 20.34 3 19.5V4.5C3.00001 3.65999 3.65999 3.00001 4.5 3H19.5ZM4.67871 3.7998C4.18084 3.7998 3.7998 4.18084 3.7998 4.67871V19.3213C3.7998 19.8192 4.18084 20.2002 4.67871 20.2002H11.4141V14.9287H9.07129V11.4141H11.4141V9.9502C11.4141 7.98806 12.9373 6.31829 14.8994 6.14258H18.1504V9.65723H15.2217C15.046 9.65723 14.9287 9.77448 14.9287 9.9502V11.4141H17.8574V14.9287H14.9287V20.2002H19.3213C19.8192 20.2002 20.2002 19.8192 20.2002 19.3213V4.67871C20.2002 4.18084 19.8192 3.7998 19.3213 3.7998H4.67871ZM14.8662 6.7998C13.2903 6.94349 12.052 8.32076 12.0518 9.95605V11.9648H9.7998V14.2607H12.0518V20.2002H14.3037V14.2607H17.1182V11.9648H14.3037V9.95605C14.3039 9.46845 14.6701 9.0957 15.1484 9.0957H17.4004V6.7998H14.8662Z" fill="white"/>
</mask>
<g mask="url(#mask0_446531_1053)">
</g>
</svg>
