<svg width="24" height="24" viewBox="0 0 24 24" fill="none" xmlns="http://www.w3.org/2000/svg">
<path d="M16.0322 3C18.7714 3 21.0001 5.22884 21 7.96777V16.0322C21 18.7712 18.7714 21 16.0322 21H7.9668C5.22807 20.9998 3 18.7711 3 16.0322V7.96777C3 5.22899 5.22807 3.00024 7.9668 3H16.0322ZM7.6416 4C5.63359 4.00022 4 5.63451 4 7.64258V16.3574C4 18.3656 5.63359 19.9999 7.6416 20H16.3574C18.3657 20 20 18.3657 20 16.3574V7.64258C20 5.63438 18.3657 4 16.3574 4H7.6416ZM12 7.3623C14.5574 7.3623 16.6376 9.44259 16.6377 12C16.6377 14.5574 14.5575 16.6377 12 16.6377C9.44249 16.6377 7.3623 14.5574 7.3623 12C7.36242 9.44259 9.44256 7.3623 12 7.3623ZM17 5.59961C17.2108 5.59961 17.4171 5.68508 17.5654 5.83398C17.7145 5.98235 17.7998 6.18948 17.7998 6.40039C17.7997 6.61044 17.7144 6.81682 17.5654 6.96582C17.4164 7.11406 17.2108 7.2002 17 7.2002C16.7898 7.2002 16.5829 7.11418 16.4346 6.96582C16.2857 6.81683 16.2003 6.61043 16.2002 6.40039C16.2002 6.18952 16.2855 5.98234 16.4346 5.83398C16.583 5.68489 16.7898 5.59961 17 5.59961Z" fill="white"/>
<mask id="mask0_446531_1055" style="mask-type:luminance" maskUnits="userSpaceOnUse" x="7" y="5" width="11" height="12">
<path d="M12.0005 7.36169C14.5575 7.36196 16.6378 9.44241 16.6382 11.9994C16.6382 14.5566 14.5578 16.6378 12.0005 16.6381C9.44298 16.6381 7.36182 14.5568 7.36182 11.9994C7.36225 9.44224 9.44324 7.36169 12.0005 7.36169ZM12.0005 8.15955C9.88326 8.15955 8.15999 9.88223 8.15967 11.9994C8.15967 14.1167 9.8832 15.8392 12.0005 15.8392C14.1176 15.839 15.8403 14.1165 15.8403 11.9994C15.84 9.88238 14.1175 8.15979 12.0005 8.15955ZM17.0005 5.59998C17.2112 5.60011 17.4177 5.68537 17.5659 5.83435C17.7149 5.98266 17.8002 6.18901 17.8003 6.39978C17.8003 6.60996 17.715 6.8171 17.5659 6.96619C17.417 7.11435 17.2112 7.19945 17.0005 7.19958C16.7904 7.19958 16.5834 7.11438 16.4351 6.96619C16.286 6.8171 16.1997 6.61003 16.1997 6.39978C16.1998 6.18895 16.286 5.98267 16.4351 5.83435C16.5835 5.68526 16.7903 5.59998 17.0005 5.59998Z" fill="white"/>
</mask>
<g mask="url(#mask0_446531_1055)">
</g>
</svg>
