<svg width="24" height="24" viewBox="0 0 24 24" fill="none" xmlns="http://www.w3.org/2000/svg">
<path d="M20.2549 4.53271C20.3771 4.47024 20.5304 4.50149 20.6221 4.59521C20.7136 4.68896 20.7437 4.81405 20.6826 4.97021C20.5299 5.40758 20.2855 5.87661 19.9189 6.31396L20.5303 6.09521C20.6525 6.06396 20.8058 6.09524 20.8975 6.18896C20.9888 6.28274 21.0188 6.43913 20.9883 6.56396C20.7133 7.46992 20.1633 8.12654 19.4912 8.47021V8.56299C19.4912 14.5937 15.092 19.5005 9.71484 19.5005C6.6905 19.5005 4.2465 18.969 3.14648 18.063C3.02432 17.938 2.96339 17.7817 3.02441 17.5942C3.08546 17.4381 3.23773 17.3131 3.4209 17.313C5.22327 17.2817 6.38454 16.8441 7.27051 16.313C5.55972 16.0942 4.49033 15.2503 3.94043 13.6567C3.87938 13.5006 3.94043 13.3443 4.0625 13.2505C4.18462 13.1568 4.36803 13.1569 4.49023 13.2192C4.94852 13.5317 5.40711 13.5942 5.95703 13.5942C4.79607 12.8756 3.72655 11.6878 3.29883 10.2192C3.26842 10.0631 3.33004 9.87545 3.45215 9.81299C3.60476 9.71959 3.7578 9.7506 3.87988 9.84424C4.21588 10.1254 4.58213 10.313 5.13184 10.4067C3.94052 9.15689 3.20757 7.31355 4.24609 5.28271L4.42969 4.90771L4.73535 5.22021C6.62942 7.251 8.37077 8.18808 11.5479 8.81299V8.68799C11.5481 6.40714 13.2899 4.53272 15.459 4.50146C16.3143 4.50162 17.5053 5.12649 17.9941 5.40771C18.0246 5.40771 18.0555 5.43853 18.0557 5.40771C18.6666 5.22029 19.3996 4.90761 20.2549 4.53271ZM15.416 5.43115C13.6376 5.46134 12.2148 7.00047 12.2148 8.87158V9.71631L11.8594 9.65576C8.59898 9.05217 6.79052 8.17718 4.89355 6.27588C4.00435 8.56953 5.84239 10.1689 6.46484 10.6216L7.20508 11.1655H6.28711C5.6944 11.1655 5.04195 11.105 4.44922 10.8335C5.10137 12.2216 6.43529 13.2476 7.56152 13.5796L7.47266 14.1831C7.23555 14.1831 6.99785 14.1832 6.76074 14.2134C6.13839 14.2436 5.57543 14.2431 5.04199 14.062C5.63477 15.2088 6.67197 15.6919 8.36133 15.6919H9.25098L8.50977 16.2349C7.59094 16.9591 6.40538 17.624 4.36035 17.7749C5.33855 18.2577 7.14683 18.7104 9.84375 18.7104C14.465 18.7103 18.7354 13.9986 18.7354 8.75049V8.23779L18.9131 8.17725C19.476 7.96609 19.8023 7.51376 20.0098 7.12158L18.8545 7.51318C18.7063 7.57354 18.5281 7.51359 18.4688 7.36279C18.4095 7.2119 18.4391 7.03047 18.5576 6.93994C19.0318 6.54759 19.3875 6.12505 19.6543 5.67236C19.0615 5.91378 18.5276 6.12498 18.083 6.27588C17.9053 6.33606 17.7275 6.3058 17.5498 6.21533C17.2234 6.03403 16.0975 5.40106 15.416 5.43115Z" fill="white"/>
<mask id="mask0_446531_1054" style="mask-type:luminance" maskUnits="userSpaceOnUse" x="3" y="4" width="18" height="16">
<path d="M20.2549 4.53271C20.3771 4.47024 20.5304 4.50149 20.6221 4.59521C20.7136 4.68896 20.7437 4.81405 20.6826 4.97021C20.5299 5.40758 20.2855 5.87661 19.9189 6.31396L20.5303 6.09521C20.6525 6.06396 20.8058 6.09524 20.8975 6.18896C20.9888 6.28274 21.0188 6.43913 20.9883 6.56396C20.7133 7.46992 20.1633 8.12654 19.4912 8.47021V8.56299C19.4912 14.5937 15.092 19.5005 9.71484 19.5005C6.6905 19.5005 4.2465 18.969 3.14648 18.063C3.02432 17.938 2.96339 17.7817 3.02441 17.5942C3.08546 17.4381 3.23773 17.3131 3.4209 17.313C5.22327 17.2817 6.38454 16.8441 7.27051 16.313C5.55972 16.0942 4.49033 15.2503 3.94043 13.6567C3.87938 13.5006 3.94043 13.3443 4.0625 13.2505C4.18462 13.1568 4.36803 13.1569 4.49023 13.2192C4.94852 13.5317 5.40711 13.5942 5.95703 13.5942C4.79607 12.8756 3.72655 11.6878 3.29883 10.2192C3.26842 10.0631 3.33004 9.87545 3.45215 9.81299C3.60476 9.71959 3.7578 9.7506 3.87988 9.84424C4.21588 10.1254 4.58213 10.313 5.13184 10.4067C3.94052 9.15689 3.20757 7.31355 4.24609 5.28271L4.42969 4.90771L4.73535 5.22021C6.62942 7.251 8.37077 8.18808 11.5479 8.81299V8.68799C11.5481 6.40714 13.2899 4.53272 15.459 4.50146C16.3143 4.50162 17.5053 5.12649 17.9941 5.40771C18.0246 5.40771 18.0555 5.43853 18.0557 5.40771C18.6666 5.22029 19.3996 4.90761 20.2549 4.53271ZM15.416 5.43115C13.6376 5.46134 12.2148 7.00047 12.2148 8.87158V9.71631L11.8594 9.65576C8.59898 9.05217 6.79052 8.17718 4.89355 6.27588C4.00435 8.56953 5.84239 10.1689 6.46484 10.6216L7.20508 11.1655H6.28711C5.6944 11.1655 5.04195 11.105 4.44922 10.8335C5.10137 12.2216 6.43529 13.2476 7.56152 13.5796L7.47266 14.1831C7.23555 14.1831 6.99785 14.1832 6.76074 14.2134C6.13839 14.2436 5.57543 14.2431 5.04199 14.062C5.63477 15.2088 6.67197 15.6919 8.36133 15.6919H9.25098L8.50977 16.2349C7.59094 16.9591 6.40538 17.624 4.36035 17.7749C5.33855 18.2577 7.14683 18.7104 9.84375 18.7104C14.465 18.7103 18.7354 13.9986 18.7354 8.75049V8.23779L18.9131 8.17725C19.476 7.96609 19.8023 7.51376 20.0098 7.12158L18.8545 7.51318C18.7063 7.57354 18.5281 7.51359 18.4688 7.36279C18.4095 7.2119 18.4391 7.03047 18.5576 6.93994C19.0318 6.54759 19.3875 6.12505 19.6543 5.67236C19.0615 5.91378 18.5276 6.12498 18.083 6.27588C17.9053 6.33606 17.7275 6.3058 17.5498 6.21533C17.2234 6.03403 16.0975 5.40106 15.416 5.43115Z" fill="white"/>
</mask>
<g mask="url(#mask0_446531_1054)">
</g>
</svg>
