<svg width="191" height="20" viewBox="0 0 191 20" fill="none" xmlns="http://www.w3.org/2000/svg">
<g id="white-logo">
<g id="XMLID_234_">
<path id="XMLID_243_" d="M14.4615 0.971182V11.5866C14.4615 15.125 12.9231 16.5866 9.23077 16.5866C5.53846 16.5866 4 15.125 4 11.5866V0.509644H0.461538C0.230769 0.509644 0 0.740413 0 0.971182V11.7404C0 17.6635 3.76923 19.7404 9.23077 19.7404C14.6923 19.7404 18.4615 17.6635 18.4615 11.7404V0.509644H14.9231C14.6923 0.509644 14.4615 0.66349 14.4615 0.971182Z" fill="white"/>
<path id="XMLID_242_" d="M65.923 3.58657C66.2307 3.58657 66.3846 3.50964 66.4615 3.27887L67.4615 0.740413C67.5384 0.586567 67.4615 0.509644 67.3077 0.509644H53C51.6923 0.509644 51.1538 0.894259 51.1538 1.81734V18.2789C51.1538 19.0481 51.5384 19.4327 52.5384 19.4327H65.8461C66.1538 19.4327 66.3077 19.3558 66.3846 19.125L67.3846 16.5866C67.4615 16.4327 67.3846 16.3558 67.2307 16.3558H55.0769V12.9712C55.0769 11.8173 55.6923 11.2789 57.4615 11.2789H62.7692C63.0769 11.2789 63.2307 11.202 63.3077 10.9712L64.3077 8.50964C64.3846 8.3558 64.3077 8.27887 64.1538 8.27887H55.1538V3.50964H65.923V3.58657Z" fill="white"/>
<path id="XMLID_238_" d="M36 0.509644C39.5385 0.509644 42.9229 1.12533 42.9229 5.27917C42.9228 7.12513 42.3078 8.58637 40.7695 9.4325C42.9234 9.97096 43.8465 11.8943 43.7695 14.202C43.7695 17.9712 41.154 19.4325 37.3848 19.4325H27.4619C26.462 19.4325 26.0772 19.0482 26.0771 18.2792V1.81726C26.0772 0.894344 26.6155 0.509732 27.9229 0.509644H36ZM32.4619 11.202C30.6927 11.202 30.0771 11.7406 30.0771 12.8944V16.3553H37.0771C39.3079 16.3553 39.9229 15.5865 39.9229 13.8173C39.9228 12.0481 39.3079 11.202 37.0771 11.202H32.4619ZM30.0771 8.27917H36.3076C38.3845 8.27917 39 7.50969 39 5.89441C39 4.27902 38.3845 3.50964 36.3076 3.50964H30.0771V8.27917Z" fill="white"/>
<path id="XMLID_235_" d="M84.3076 0.509644C88.9998 0.509644 91.8465 1.74033 91.8467 6.35535C91.8467 9.89381 90.0769 11.2788 88 11.8173L92.2305 19.1249C92.3073 19.2017 92.3078 19.4322 92.1543 19.4325H88.5391C88.2314 19.4325 88.1538 19.3556 88 19.1249L84.1543 12.202H80.6924C78.9232 12.202 78.3076 12.7406 78.3076 13.8944V19.4325H74.8467C74.616 19.4325 74.385 19.2022 74.3848 18.9716V1.81726C74.3848 0.894344 74.9231 0.509732 76.2305 0.509644H84.3076ZM78.2305 3.50964V9.27917H84.8467C87.3079 9.27908 87.8467 8.35525 87.8467 6.35535C87.8466 4.43267 87.3077 3.50974 84.8467 3.50964H78.2305Z" fill="white"/>
</g>
<g id="XMLID_224_">
<path id="XMLID_232_" d="M121.692 17.7404L121.615 19.4327H107.615V0.509644H121.077L121.154 2.27887H109.538V8.81734H119.538V10.3558H109.538V17.7404H121.692Z" fill="#57AD56" stroke="#57AD56" stroke-width="0.25"/>
<g id="XMLID_229_">
<path d="M148.769 19.4325H146.615L144.461 14.5096H133.307L131.154 19.4325H129.077L137.846 0.509644H140.077L148.769 19.4325ZM138.077 3.74011L134 12.8944H143.692L139.692 3.74011L138.922 1.81726H138.846L138.077 3.74011Z" fill="#57AD56"/>
<path d="M148.769 19.4325V19.5575H148.964L148.883 19.3803L148.769 19.4325ZM146.615 19.4325L146.5 19.4826L146.533 19.5575H146.615V19.4325ZM144.461 14.5096L144.576 14.4595L144.543 14.3846H144.461V14.5096ZM133.307 14.5096V14.3846H133.225L133.193 14.4595L133.307 14.5096ZM131.154 19.4325V19.5575H131.236L131.268 19.4826L131.154 19.4325ZM129.077 19.4325L128.963 19.3799L128.881 19.5575H129.077V19.4325ZM137.846 0.509644V0.384644H137.766L137.733 0.457084L137.846 0.509644ZM140.077 0.509644L140.19 0.457465L140.157 0.384644H140.077V0.509644ZM138.077 3.74011L138.191 3.79101L138.193 3.78656L138.077 3.74011ZM134 12.8944L133.885 12.8436L133.807 13.0194H134V12.8944ZM143.692 12.8944V13.0194H143.883L143.806 12.8444L143.692 12.8944ZM139.692 3.74011L139.576 3.78658L139.577 3.79016L139.692 3.74011ZM138.922 1.81726L139.038 1.77082L139.007 1.69226H138.922V1.81726ZM138.846 1.81726V1.69226H138.762L138.73 1.77082L138.846 1.81726ZM148.769 19.4325V19.3075H146.615V19.4325V19.5575H148.769V19.4325ZM146.615 19.4325L146.729 19.3824L144.576 14.4595L144.461 14.5096L144.347 14.5597L146.5 19.4826L146.615 19.4325ZM144.461 14.5096V14.3846H133.307V14.5096V14.6346H144.461V14.5096ZM133.307 14.5096L133.193 14.4595L131.039 19.3824L131.154 19.4325L131.268 19.4826L133.422 14.5597L133.307 14.5096ZM131.154 19.4325V19.3075H129.077V19.4325V19.5575H131.154V19.4325ZM129.077 19.4325L129.19 19.4851L137.96 0.562203L137.846 0.509644L137.733 0.457084L128.963 19.3799L129.077 19.4325ZM137.846 0.509644V0.634644H140.077V0.509644V0.384644H137.846V0.509644ZM140.077 0.509644L139.963 0.561822L148.655 19.4847L148.769 19.4325L148.883 19.3803L140.19 0.457465L140.077 0.509644ZM138.077 3.74011L137.962 3.68926L133.885 12.8436L134 12.8944L134.114 12.9453L138.191 3.79097L138.077 3.74011ZM134 12.8944V13.0194H143.692V12.8944V12.7694H134V12.8944ZM143.692 12.8944L143.806 12.8444L139.806 3.69006L139.692 3.74011L139.577 3.79016L143.577 12.9445L143.692 12.8944ZM139.692 3.74011L139.808 3.69367L139.038 1.77082L138.922 1.81726L138.806 1.8637L139.576 3.78656L139.692 3.74011ZM138.922 1.81726V1.69226H138.846V1.81726V1.94226H138.922V1.81726ZM138.846 1.81726L138.73 1.77082L137.961 3.69367L138.077 3.74011L138.193 3.78656L138.962 1.8637L138.846 1.81726Z" fill="#57AD56"/>
</g>
<path id="XMLID_227_" d="M162.615 2.27887V19.4327H160.692V2.27887H153.615L153.692 0.509644H169.769V2.27887H162.615Z" fill="#57AD56" stroke="#57AD56" stroke-width="0.25"/>
<path id="XMLID_225_" d="M183.461 19.8173C180.846 19.8173 178.769 19.2019 177.077 18.2019L177.384 16.5096C179.154 17.5096 181.154 18.125 183.538 18.125C187.077 18.125 188.923 16.5096 188.923 14.2019C188.923 9.20192 177.384 11.8173 177.384 5.35577C177.384 2.58654 179.461 0.125 184.307 0.125C186.538 0.125 188.538 0.509615 190.154 1.27885L189.846 2.89423C188.077 2.20192 186.384 1.81731 184.384 1.81731C180.615 1.81731 179.231 3.50962 179.231 5.20192C179.231 9.97115 190.769 7.27885 190.769 14.0481C190.692 17.4327 188.231 19.8173 183.461 19.8173Z" fill="#57AD56" stroke="#57AD56" stroke-width="0.25"/>
</g>
</g>
</svg>
