<svg width="16" height="16" viewBox="0 0 16 16" fill="none" xmlns="http://www.w3.org/2000/svg">
<g id="world">
<path id="Shape" d="M8.33594 0.0244141C12.4476 0.27283 15.7196 3.68631 15.7197 7.85938C15.7197 12.0326 12.4477 15.4472 8.33594 15.6953C8.24909 15.7057 8.16247 15.7197 8.07422 15.7197C8.04839 15.7197 8.02289 15.7128 7.99707 15.7119C7.95135 15.7128 7.90565 15.7197 7.85938 15.7197C3.52575 15.7196 0 12.1933 0 7.85938C0.00014872 3.52612 3.52584 0.000148719 7.85938 0C7.90555 0 7.95118 0.00596305 7.99707 0.00683594C8.02261 0.00599383 8.04839 0 8.07422 0C8.16249 1.24646e-05 8.24907 0.0145941 8.33594 0.0244141ZM8.41992 14.666C9.26202 14.3398 10.5091 12.8663 11.0088 10.8711C10.2874 10.8155 9.26203 10.7757 8.41992 10.7656V14.666ZM7.29688 10.7656C6.45482 10.7757 5.43693 10.815 4.70605 10.8691C5.21438 12.8376 6.45481 14.2976 7.29688 14.6504V10.7656ZM3.81055 10.9531C2.86845 11.0516 2.23097 11.1664 1.875 11.2422H1.87402C2.6826 12.6653 3.97069 13.755 5.50781 14.3174C4.78534 13.4843 4.18136 12.3251 3.81055 10.9531ZM11.9336 10.9678C11.6442 12.2579 11.1748 13.3564 10.5859 14.1748C11.9449 13.583 13.0782 12.5704 13.8184 11.2861C13.5109 11.2087 12.9012 11.0792 11.9336 10.9678ZM14.3936 5.73047C14.3465 5.7471 13.6764 5.97407 12.167 6.15527C12.3147 7.43423 12.2952 8.72715 12.1084 10.001C13.3028 10.1413 13.9826 10.3098 14.2529 10.3887C14.5645 9.605 14.7412 8.75278 14.7412 7.85938C14.7408 6.97633 14.5686 6.10193 14.2354 5.28418L14.3936 5.73047ZM1.29785 5.79102C1.09158 6.44382 0.979521 7.13866 0.979492 7.85938C0.980654 8.70621 1.13838 9.54609 1.44629 10.335C1.76093 10.2589 2.46248 10.1128 3.60059 9.98926C3.4799 9.31308 3.40918 8.60123 3.40918 7.85938C3.40981 7.29281 3.45012 6.72702 3.5293 6.16602C2.20287 6.0187 1.48566 5.84161 1.29785 5.79102ZM11.2266 6.25391C10.4428 6.31903 9.26203 6.36503 8.41992 6.37598V9.78711C9.26203 9.79721 10.4061 9.84198 11.1777 9.9043C11.2821 9.25513 11.3066 8.56775 11.3066 7.85938C11.3066 7.30806 11.2911 6.77185 11.2266 6.25391ZM4.4668 6.25684C4.40031 6.77401 4.38965 7.30938 4.38965 7.85938C4.38965 8.56688 4.41989 9.25306 4.52734 9.90137C5.11349 9.85589 5.90486 9.82028 6.61914 9.80078L7.29688 9.78711V6.37598C6.45489 6.36474 5.26026 6.31969 4.4668 6.25684ZM7.29688 1.06934C6.45478 1.44801 5.07175 3.09856 4.60156 5.28613C5.35433 5.34366 6.4549 5.38707 7.29688 5.39746V1.06934ZM8.41992 5.39746C9.26203 5.38707 10.3706 5.3441 11.1113 5.28516C10.6502 3.06997 9.26204 1.40427 8.41992 1.05469V5.39746ZM5.50684 1.40234C3.82585 2.01876 2.4503 3.26455 1.66992 4.87598C1.93881 4.94058 2.60525 5.07942 3.70898 5.19922C4.06408 3.64086 4.7108 2.32132 5.50684 1.40234ZM10.5859 1.54492C11.2394 2.45319 11.7409 3.71119 12.0186 5.1875C13.2488 5.04182 13.8709 4.86845 14.0244 4.82129C13.3027 3.36306 12.084 2.19418 10.5859 1.54492Z" fill="white"/>
</g>
</svg>
